#define arrowmenu_14_width 14
#define arrowmenu_14_height 14
static unsigned char arrowmenu_14_bits[] = {
   0xff, 0x3f, 0x0f, 0x3c, 0xee, 0x1d, 0x0e, 0x1c, 0xec, 0x0d, 0x0c, 0x0c,
   0xe8, 0x05, 0x08, 0x04, 0xf0, 0x03, 0xf0, 0x03, 0xe0, 0x01, 0xe0, 0x01,
   0xc0, 0x00, 0xc0, 0x00};
